# xmcd CD database file
#
# Track frame offsets:
# 150
# 11276
# 25984
# 36989
# 47348
# 57525
# 71776
# 85189
# 97630
# 108903
# 121510
# 131060
# 140029
# 153121
#
# Disc length: 2170 seconds
#
# Revision: 1
# Processed by: cddbd v1.5.2PL0 Copyright (c) Steve Scherf et al.
# Submitted via: CDex 1.40Beta9
#
DISCID=ac08780e
DTITLE=Unknown - Dream Big
DYEAR=2002
DGENRE=Country
TTITLE0=Waking Up Dead
TTITLE1=The Reason
TTITLE2=She's Sweet
TTITLE3=Dream Big
TTITLE4=Love Me or Leave Me
TTITLE5=Rags From Riches
TTITLE6=Bold and Crazy
TTITLE7=What I'm Looking For
TTITLE8=Straggler
TTITLE9=Play It Cool
TTITLE10=You Never Do
TTITLE11=Repeating Myself
TTITLE12=Like That
TTITLE13=Waiting
EXTD=YEAR: 2002 ID3G: 2
EXTT0=
EXTT1=
EXTT2=
EXTT3=
EXTT4=
EXTT5=
EXTT6=
EXTT7=
EXTT8=
EXTT9=
EXTT10=
EXTT11=
EXTT12=
EXTT13=
PLAYORDER=
